# xmcd CD database file
#
# Track frame offsets:
#	150
#	48795
#	71352
#	97612
#	126105
#	148775
#
# Disc length: 2412 seconds
#
# Revision: 0
# Processed by: cddbd v1.5.2PL0 Copyright (c) Steve Scherf et al.
# Submitted via: CDex 1.60beta1-cs1
#
DISCID=46096a06
DTITLE=Toshiko Akiyoshi - Toshiko meets her Old Pals
DYEAR=1900
DGENRE=Jazz
TTITLE0=So What
TTITLE1=The night has a thousand Eyes
TTITLE2=Donna Lee
TTITLE3=Quebec
TTITLE4=Old Pals
TTITLE5=Watasu no Beethovin
EXTD=
EXTT0=
EXTT1=
EXTT2=
EXTT3=
EXTT4=
EXTT5=
PLAYORDER=
